{"asset":{"version":"2.0","generator":"THREE.GLTFExporter"},"scenes":[{"nodes":[0],"name":"AuxScene"}],"scene":0,"nodes":[{"mesh":0}],"bufferViews":[{"buffer":0,"byteOffset":0,"byteLength":150912,"target":34962,"byteStride":12},{"buffer":0,"byteOffset":150912,"byteLength":150912,"target":34962,"byteStride":12}],"buffers":[{"byteLength":301824,"uri":"data:application/octet-stream;base64,"}],"accessors":[{"bufferView":0,"componentType":5126,"count":12576,"max":[100.61190795898438,9.795974731445312,100.61190795898438],"min":[-100.78809356689453,0.39597299695014954,-100.78809356689453],"type":"VEC3"},{"bufferView":1,"componentType":5126,"count":12576,"max":[0.9914541840553284,1,0.9906797409057617],"min":[-0.9669821262359619,0.03598516061902046,-0.9899512529373169],"type":"VEC3"}],"materials":[{"pbrMetallicRoughness":{"baseColorFactor":[0.5019607843137255,0.5019607843137255,0.5019607843137255,1],"metallicFactor":0,"roughnessFactor":1}}],"meshes":[{"primitives":[{"mode":4,"attributes":{"POSITION":0,"NORMAL":1},"material":0}]}]}